<svg width="24" height="24" viewBox="0 0 24 24" fill="none" xmlns="http://www.w3.org/2000/svg">
<path d="M8.31579 2H15.6842V12H22V22H2V8.84211H8.31579V2ZM8.09526 16.2401V15.0773H5.87053V15.0591L6.42042 14.6028C6.85979 14.2234 7.22611 13.8257 7.51932 13.4098C7.81253 12.9938 7.96484 12.5369 7.97616 12.0388C7.97421 11.4988 7.79868 11.0618 7.44958 10.7276C7.10047 10.3934 6.58942 10.2214 5.91637 10.2115C5.51405 10.2158 5.14553 10.2741 4.81079 10.3866C4.47611 10.499 4.19695 10.6398 3.97337 10.8092L4.36742 11.7833L4.92879 11.456C5.14574 11.3577 5.38326 11.3057 5.64142 11.2998C5.98263 11.3057 6.23047 11.3897 6.3849 11.5518C6.53937 11.7139 6.61537 11.9189 6.61289 12.1666C6.60947 12.5023 6.44679 12.8642 6.12484 13.2524C5.80295 13.6406 5.3149 14.1212 4.66074 14.6941L3.9 15.3843V16.2401H8.09526ZM11.6216 9.45042H12.9688V3.5049H11.8232L10.2376 4.23663L10.4667 5.27942L11.6032 4.73974H11.6216V9.45042ZM16.6612 19.3533C16.8392 19.4615 17.0813 19.5556 17.3875 19.6355C17.6938 19.7154 18.0413 19.7574 18.4301 19.7614C19.1763 19.7514 19.7537 19.5808 20.1622 19.2497C20.5707 18.9185 20.7777 18.4864 20.7832 17.9533C20.7745 17.5531 20.6559 17.2262 20.4272 16.9724C20.1986 16.7187 19.9117 16.5581 19.5666 16.4908V16.4725C19.9106 16.3464 20.1688 16.165 20.3412 15.9284C20.5136 15.6918 20.5998 15.4161 20.5998 15.1011C20.5973 14.6871 20.432 14.3415 20.1039 14.0644C19.7759 13.7873 19.3004 13.6433 18.6775 13.6325C18.2823 13.6369 17.9226 13.6826 17.5984 13.7697C17.2742 13.8568 17.0198 13.9593 16.8354 14.0769L17.1195 15.0739L17.6453 14.8431C17.8705 14.7673 18.1076 14.7265 18.3568 14.7208C18.6541 14.7244 18.8752 14.7829 19.0201 14.8963C19.165 15.0096 19.2372 15.1564 19.2366 15.3364C19.2219 15.5825 19.1047 15.7579 18.8849 15.8626C18.6651 15.9673 18.4311 16.0182 18.1826 16.0153H17.6327V17.012H18.2009C18.5284 17.0106 18.8106 17.0803 19.0476 17.2208C19.2845 17.3613 19.4086 17.5809 19.4199 17.8795C19.4197 18.1063 19.3284 18.2939 19.1461 18.4424C18.9637 18.5908 18.6915 18.6677 18.3293 18.6731C18.0385 18.6663 17.7677 18.6221 17.517 18.5404L16.9453 18.3039L16.6612 19.3533Z" fill="#8F79E8"/>
</svg>
