<svg width="24" height="24" viewBox="0 0 24 24" fill="none" xmlns="http://www.w3.org/2000/svg">
<path d="M2 2V11.1304H11.1304V2H2ZM9.82609 9.82609H3.30434V3.30434H9.82609V9.82609Z" fill="#8F79E8"/>
<path d="M8.52181 4.60864H4.60876V8.52169H8.52181V4.60864Z" fill="#8F79E8"/>
<path d="M12.8696 2V11.1304H22.0001V2H12.8696ZM20.6957 9.82609H14.174V3.30434H20.6957V9.82609Z" fill="#8F79E8"/>
<path d="M19.3913 4.60864H15.4783V8.52169H19.3913V4.60864Z" fill="#8F79E8"/>
<path d="M2 12.8696V22.0001H11.1304V12.8696H2ZM9.82609 20.6957H3.30434V14.174H9.82609V20.6957Z" fill="#8F79E8"/>
<path d="M8.52181 15.4783H4.60876V19.3913H8.52181V15.4783Z" fill="#8F79E8"/>
<path d="M12.8696 12.8696V22.0001H15.4783V20.6957H14.174V18.087H15.4783V16.7827H14.174V14.174H15.4783V12.8696H12.8696Z" fill="#8F79E8"/>
<path d="M22 12.8696H20.6957V14.174H22V12.8696Z" fill="#8F79E8"/>
<path d="M20.6956 20.6957H19.3912V22H21.9999V15.9131H20.6956V20.6957Z" fill="#8F79E8"/>
<path d="M19.3913 12.8696H16.7826V14.174H19.3913V12.8696Z" fill="#8F79E8"/>
<path d="M19.3913 18.087H18.0869V16.7826H19.3913V15.4783H16.7826V19.3913H19.3913V18.087Z" fill="#8F79E8"/>
<path d="M18.0869 20.6956H16.7826V21.9999H18.0869V20.6956Z" fill="#8F79E8"/>
</svg>
